<?xml version="1.0" encoding="utf-8"?>
<!-- Generator: Adobe Illustrator 22.1.0, SVG Export Plug-In . SVG Version: 6.00 Build 0)  -->
<svg version="1.1" id="Layer_1" xmlns="http://www.w3.org/2000/svg" xmlns:xlink="http://www.w3.org/1999/xlink" x="0px" y="0px"
	 viewBox="0 0 228 88.5" style="enable-background:new 0 0 228 88.5;" xml:space="preserve">
<style type="text/css">
	.st0{fill:#191919;}
</style>
<g>
	<path class="st0" d="M214.3,52.4c-6.5,0-10.2-3.1-13.4-5.9c-2.9-2.5-5.4-4.7-10.2-4.7c-5.8,0-9.2,2.5-12.8,5.1
		c-3.6,2.6-7.6,5.5-13.8,5.5c-6.5,0-10.2-3.1-13.4-5.9c-2.9-2.5-5.4-4.7-10.2-4.7c-5.8,0-9.2,2.5-12.8,5.1
		c-3.6,2.6-7.6,5.5-13.8,5.5c-6.5,0-10.2-3.1-13.4-5.9c-2.9-2.5-5.4-4.7-10.2-4.7c-5.8,0-9.2,2.5-12.8,5.1
		c-3.6,2.6-7.6,5.5-13.8,5.5c-6.5,0-10.2-3.1-13.4-5.9c-2.9-2.5-5.4-4.7-10.2-4.7c-5.8,0-9.2,2.5-12.8,5.1
		c-3.6,2.6-7.6,5.5-13.8,5.5v-5.8c4.3,0,7-1.9,10.4-4.4c4-2.9,8.5-6.2,16.2-6.2c7,0,10.7,3.2,14,6.1c2.9,2.5,5.2,4.5,9.6,4.5
		c4.3,0,7-1.9,10.4-4.4c4-2.9,8.5-6.2,16.2-6.2c7,0,10.7,3.2,14,6.1c2.9,2.5,5.2,4.5,9.6,4.5c4.3,0,7-1.9,10.4-4.4
		c4-2.9,8.5-6.2,16.2-6.2c7,0,10.7,3.2,14,6.1c2.9,2.5,5.2,4.5,9.6,4.5c4.3,0,7-1.9,10.4-4.4c4-2.9,8.5-6.2,16.2-6.2
		c7,0,10.7,3.2,14,6.1c2.9,2.5,5.2,4.5,9.6,4.5V52.4z"/>
</g>
</svg>
