<svg width="674" height="674" viewBox="0 0 674 674" fill="none" xmlns="http://www.w3.org/2000/svg">
<path d="M334.525 361.729C332.475 365.922 330.907 369.884 329.493 373.708C321.896 393.936 323.226 423.248 332.308 435.21C333.166 436.699 334.421 437.92 335.933 438.737C337.445 439.554 339.154 439.935 340.87 439.838C343.524 439.791 346.132 439.138 348.495 437.929C350.858 436.72 352.914 434.987 354.504 432.862C359.657 425.502 359.448 412.436 357.016 403.29C352.7 388.402 346.029 374.3 337.258 361.519C337.103 361.288 336.888 361.103 336.637 360.982C336.387 360.861 336.108 360.808 335.831 360.83C335.553 360.851 335.286 360.945 335.057 361.103C334.827 361.261 334.644 361.477 334.525 361.729Z" fill="#FFC3E5"/>
<path d="M263.695 72.924C211.53 87.3592 164.818 116.938 129.464 157.92C94.1094 198.902 71.7011 249.447 65.0721 303.165C58.443 356.882 67.891 411.358 92.2214 459.706C116.552 508.053 154.672 548.101 201.762 574.785C248.851 601.468 302.796 613.59 356.775 609.616C410.753 605.643 462.341 585.753 505.016 552.462C547.691 519.17 579.536 473.972 596.525 422.583C613.513 371.194 614.882 315.921 600.459 263.754C590.88 229.109 574.571 196.691 552.462 168.35C530.353 140.01 502.878 116.302 471.605 98.5815C440.333 80.8608 405.876 69.4741 370.202 65.0717C334.528 60.6693 298.337 63.3376 263.695 72.924ZM527.041 411.65C524.156 414.576 520.553 416.693 516.592 417.787C512.632 418.882 508.453 418.916 504.475 417.887C500.802 416.918 497.464 414.961 494.825 412.228C492.186 409.495 490.347 406.091 489.507 402.387L487.349 394.576C476.206 351.355 453.063 261.461 421.374 255.234C411.573 253.322 400.614 260.458 388.725 276.418C381.207 286.485 371.603 299.567 362.066 313.818C361.92 314.038 361.834 314.293 361.817 314.556C361.799 314.82 361.851 315.084 361.968 315.321C371.679 334.905 383.237 362.096 387.62 387.709C393.182 420.376 385.322 460.666 354.858 471.877C353.874 472.149 352.921 472.412 351.877 472.701C329.908 478.772 304.646 463.293 294.398 436.895C280.233 399.803 293.788 359.8 309.81 321.874C309.903 321.652 309.943 321.411 309.927 321.17C309.911 320.93 309.838 320.696 309.716 320.489C296.472 300.084 279.787 278.256 263.958 277.753C256.007 277.544 247.845 283.073 239.65 294.289C217.614 324.733 202.763 372.121 200.823 417.578C201.229 420.674 199.829 435.693 197.857 438.195C195.349 441.321 191.92 443.578 188.057 444.646C184.194 445.713 180.092 445.537 176.335 444.143L172.125 442.611C168.977 441.203 167.572 433.217 167.486 432.791L166.064 423.815L165.966 423.457C164.6 369.288 161.407 248.018 236.651 223.759C267.802 213.642 306.169 230.216 331.441 263.724C331.586 263.936 331.786 264.105 332.02 264.212C332.254 264.319 332.512 264.361 332.768 264.334C333.023 264.306 333.267 264.209 333.472 264.054C333.677 263.899 333.836 263.691 333.932 263.453C347.432 232.77 364.85 202.8 393.517 194.14C401.19 191.576 409.312 190.637 417.368 191.382C425.424 192.128 433.236 194.542 440.308 198.471C484.226 222.591 506.75 302.935 523.205 361.661C526.121 372.214 528.84 382.051 531.56 390.733C532.799 394.298 533.032 398.136 532.235 401.826C531.438 405.515 529.641 408.914 527.041 411.65Z" fill="#FFC3E5"/>
</svg>
