<svg id="Layer_1" data-name="Layer 1" xmlns="http://www.w3.org/2000/svg" viewBox="0 0 588.58 569.68"><defs><style>.cls-1{fill:#ff80ab;}</style></defs><title>logo</title><path class="cls-1" d="M306,321.51c-2.22,2.62-4.23,5.18-6,7.65-9.54,13.11-14.42,34.56-10.24,45,1.54,3.85,3.74,4.66,5.27,4.95,4.64.84,8.32.09,11.24-2.32,5.19-4.28,7.64-13.76,7.71-20.76.14-11.86-2.46-23-5.94-34.14A1.17,1.17,0,0,0,306,321.51Z"/><path class="cls-1" d="M312.47,98.6c-113.34,0-205.22,91.88-205.22,205.22S199.13,509,312.47,509s205.22-91.88,205.22-205.22S425.81,98.6,312.47,98.6ZM435.16,396.05a17.59,17.59,0,0,1-17.56.08,15.62,15.62,0,0,1-7.73-14.2l.1-6.08c.59-33.46,1.8-103.07-19.84-113.89-6.71-3.35-16.07-.39-27.86,8.78-7.42,5.77-17,13.32-26.72,21.71a1.1,1.1,0,0,0-.38,1.06c3.11,16.11,6,38.07,4.08,57.46-2.5,24.73-16.24,52.27-40.5,54.3q-1.12.09-2.25.09c-17.07,0-32.25-16.23-34.38-37.37-3-29.81,14.78-56,33.95-80.22a1.12,1.12,0,0,0,.2-1c-5.5-17.37-13.18-36.49-24.53-40-5.7-1.74-12.71.62-20.82,7.09-22.07,17.6-42.28,48.78-52.75,81.37-.32,2.37-4.33,12.9-6.26,14.31h0a14.34,14.34,0,0,1-16.76.09l-2.72-1.95c-2-1.65-1.41-7.7-1.39-8l.76-6.76,0-.29c9.83-39.5,31.74-127.73,91-130.23,24.54-1.1,48.95,18.44,60.53,47.82a1.09,1.09,0,0,0,1.87.31c15.88-19.5,34.45-37.66,56.9-38.19,13-.42,24.15,3.88,33,12.47,26.93,26.21,27.16,88.78,27.32,134.46,0,8.21.06,15.88.24,22.68A15.47,15.47,0,0,1,435.16,396.05Z"/></svg>